<svg xmlns="http://www.w3.org/2000/svg" xmlns:xlink="http://www.w3.org/1999/xlink"><symbol id="arrow-left"><path d="M10.274.292a1.112 1.112 0 0 1 1.587 0 1.12 1.12 0 0 1 0 1.571L3.814 9.91h26.554c.619 0 1.127.492 1.127 1.111s-.508 1.127-1.127 1.127H3.814l8.047 8.032c.429.444.429 1.159 0 1.587a1.112 1.112 0 0 1-1.587 0L.322 11.815a1.12 1.12 0 0 1 0-1.571L10.274.292z"/></symbol><symbol id="arrow-right"><path d="M21.205.291a1.112 1.112 0 0 0-1.587 0 1.12 1.12 0 0 0 0 1.571l8.047 8.047H1.111A1.106 1.106 0 0 0 0 11.021c0 .619.492 1.127 1.111 1.127h26.554l-8.047 8.032c-.429.444-.429 1.159 0 1.587a1.112 1.112 0 0 0 1.587 0l9.952-9.952a1.093 1.093 0 0 0 0-1.571L21.205.291z"/></symbol><symbol id="cart"><path d="M7.2 19.2c-1.32 0-2.4 1.08-2.4 2.4 0 1.32 1.08 2.4 2.4 2.4 1.32 0 2.4-1.08 2.4-2.4 0-1.32-1.08-2.4-2.4-2.4zM0 0v2.4h2.4l4.32 9.12-1.68 2.88c-.12.36-.24.84-.24 1.2 0 1.32 1.08 2.4 2.4 2.4h14.4v-2.4H7.68c-.12 0-.24-.12-.24-.24v-.12l1.08-2.04h8.88c.96 0 1.68-.48 2.04-1.2l4.32-7.8c.24-.24.24-.36.24-.6 0-.72-.48-1.2-1.2-1.2H5.04L3.96 0H0zm19.2 19.2c-1.32 0-2.4 1.08-2.4 2.4 0 1.32 1.08 2.4 2.4 2.4 1.32 0 2.4-1.08 2.4-2.4 0-1.32-1.08-2.4-2.4-2.4z"/></symbol><symbol id="close" viewBox="0 0 212.982 212.982"><path d="M131.804 106.491l75.936-75.936c6.99-6.99 6.99-18.323 0-25.312-6.99-6.99-18.322-6.99-25.312 0L106.491 81.18 30.554 5.242c-6.99-6.99-18.322-6.99-25.312 0-6.989 6.99-6.989 18.323 0 25.312l75.937 75.936-75.937 75.937c-6.989 6.99-6.989 18.323 0 25.312 6.99 6.99 18.322 6.99 25.312 0l75.937-75.937 75.937 75.937c6.989 6.99 18.322 6.99 25.312 0 6.99-6.99 6.99-18.322 0-25.312l-75.936-75.936z" fill-rule="evenodd" clip-rule="evenodd"/></symbol><symbol id="filter" viewBox="0 0 56 56"><path d="M41.08 48H2a1 1 0 1 0 0 2h39.08c.488 3.387 3.401 6 6.92 6 3.859 0 7-3.14 7-7s-3.141-7-7-7c-3.519 0-6.432 2.613-6.92 6zM20.695 27H2a1 1 0 1 0 0 2h18.632c.396 3.602 3.456 6.414 7.161 6.414s6.765-2.812 7.161-6.414H54a1 1 0 1 0 0-2H34.891c-.577-3.4-3.536-6-7.098-6s-6.521 2.6-7.098 6zM8 0C4.141 0 1 3.14 1 7s3.141 7 7 7c3.519 0 6.432-2.613 6.92-6H54a1 1 0 1 0 0-2H14.92C14.432 2.613 11.519 0 8 0z"/></symbol><symbol id="icon-facebook" viewBox="0 0 32 59"><path d="M30.795-.176L23.12-.188c-8.623 0-14.196 5.717-14.196 14.566v6.716H1.207c-.667 0-1.207.54-1.207 1.208v9.73c0 .667.54 1.207 1.207 1.207h7.717v24.554c0 .667.54 1.207 1.207 1.207H20.2c.667 0 1.207-.54 1.207-1.207V33.24h9.023c.667 0 1.207-.54 1.207-1.207l.003-9.73a1.209 1.209 0 0 0-1.207-1.208h-9.026v-5.693c0-2.736.652-4.126 4.216-4.126l5.17-.001c.667 0 1.207-.541 1.207-1.207V1.03c0-.665-.54-1.205-1.205-1.207z"/></symbol><symbol id="icon-instagram" viewBox="0 0 169.063 169.063"><path d="M122.406 0H46.654C20.929 0 0 20.93 0 46.655v75.752c0 25.726 20.929 46.655 46.654 46.655h75.752c25.727 0 46.656-20.93 46.656-46.655V46.655C169.063 20.93 148.133 0 122.406 0zm31.657 122.407c0 17.455-14.201 31.655-31.656 31.655H46.654C29.2 154.063 15 139.862 15 122.407V46.655C15 29.201 29.2 15 46.654 15h75.752c17.455 0 31.656 14.201 31.656 31.655v75.752z"/><path d="M84.531 40.97c-24.021 0-43.563 19.542-43.563 43.563 0 24.02 19.542 43.561 43.563 43.561s43.563-19.541 43.563-43.561c0-24.021-19.542-43.563-43.563-43.563zm0 72.123c-15.749 0-28.563-12.812-28.563-28.561 0-15.75 12.813-28.563 28.563-28.563s28.563 12.813 28.563 28.563c0 15.749-12.814 28.561-28.563 28.561zm45.39-84.842c-2.89 0-5.729 1.17-7.77 3.22a11.053 11.053 0 0 0-3.23 7.78c0 2.891 1.18 5.73 3.23 7.78 2.04 2.04 4.88 3.22 7.77 3.22 2.9 0 5.73-1.18 7.78-3.22 2.05-2.05 3.22-4.89 3.22-7.78 0-2.9-1.17-5.74-3.22-7.78-2.04-2.05-4.88-3.22-7.78-3.22z"/></symbol><symbol id="icon-twitter" viewBox="0 0 612 612"><path d="M612 116.258a250.714 250.714 0 0 1-72.088 19.772c25.929-15.527 45.777-40.155 55.184-69.411-24.322 14.379-51.169 24.82-79.775 30.48-22.907-24.437-55.49-39.658-91.63-39.658-69.334 0-125.551 56.217-125.551 125.513 0 9.828 1.109 19.427 3.251 28.606-104.326-5.24-196.835-55.223-258.75-131.174-10.823 18.51-16.98 40.078-16.98 63.101 0 43.559 22.181 81.993 55.835 104.479a125.556 125.556 0 0 1-56.867-15.756v1.568c0 60.806 43.291 111.554 100.693 123.104-10.517 2.83-21.607 4.398-33.08 4.398-8.107 0-15.947-.803-23.634-2.333 15.985 49.907 62.336 86.199 117.253 87.194-42.947 33.654-97.099 53.655-155.916 53.655-10.134 0-20.116-.612-29.944-1.721 55.567 35.681 121.536 56.485 192.438 56.485 230.948 0 357.188-191.291 357.188-357.188l-.421-16.253c24.666-17.593 46.005-39.697 62.794-64.861z"/></symbol><symbol id="list" viewBox="0 0 209 209"><path d="M0 84.5h40v40H0zm0-70.25h40v40H0zm0 140.5h40v40H0zM67 84.5h142v40H67zm0-70.25h142v40H67zm0 140.5h142v40H67z"/></symbol><symbol id="minus" viewBox="0 0 24 24"><path d="M24 11c0-.6-.4-1-1-1H1c-.6 0-1 .4-1 1v2c0 .6.4 1 1 1h22c.6 0 1-.4 1-1v-2z"/></symbol><symbol id="plus" viewBox="0 0 24 24"><path d="M23 10h-8.5c-.3 0-.5-.2-.5-.5V1c0-.6-.4-1-1-1h-2c-.6 0-1 .4-1 1v8.5c0 .3-.2.5-.5.5H1c-.6 0-1 .4-1 1v2c0 .6.4 1 1 1h8.5c.3 0 .5.2.5.5V23c0 .6.4 1 1 1h2c.6 0 1-.4 1-1v-8.5c0-.3.2-.5.5-.5H23c.6 0 1-.4 1-1v-2c0-.6-.4-1-1-1z"/></symbol><symbol id="search" viewBox="0 0 56.966 56.966"><path d="M55.146 51.887L41.588 37.786A22.926 22.926 0 0 0 46.984 23c0-12.682-10.318-23-23-23s-23 10.318-23 23 10.318 23 23 23c4.761 0 9.298-1.436 13.177-4.162l13.661 14.208c.571.593 1.339.92 2.162.92.779 0 1.518-.297 2.079-.837a3.004 3.004 0 0 0 .083-4.242zM23.984 6c9.374 0 17 7.626 17 17s-7.626 17-17 17-17-7.626-17-17 7.626-17 17-17z"/></symbol><symbol id="star-half" viewBox="0 0 475.075 454"><path d="M223.541 12.61l-64.233 129.905-143.322 20.839C5.33 165.068 0 169.445 0 176.488c0 3.999 2.38 8.567 7.135 13.706l103.923 101.064L86.507 434.01c-.381 2.67-.571 4.572-.571 5.716 0 3.997.999 7.371 2.996 10.136 1.999 2.759 4.995 4.138 8.993 4.138 3.426 0 7.233-1.133 11.42-3.426l128.19-67.382V.902c-5.709 0-10.37 3.9-13.994 11.708z" fill="#ff6b2b"/><path d="M251.526 12.61l64.233 129.905 143.322 20.839c10.656 1.714 15.986 6.09 15.986 13.134 0 3.999-2.38 8.567-7.135 13.706L364.01 291.258l24.55 142.752c.381 2.67.571 4.572.571 5.716 0 3.997-.999 7.37-2.996 10.136-1.999 2.759-4.995 4.138-8.993 4.138-3.426 0-7.233-1.133-11.42-3.426l-128.19-67.382V.902c5.71 0 10.37 3.9 13.994 11.708z" fill="#d6d6d6"/></symbol><symbol id="star" viewBox="0 0 475.075 454"><path d="M475.075 176.487c0-7.043-5.328-11.42-15.992-13.135l-143.317-20.838-64.237-129.906C247.915 4.804 243.248.904 237.539.904c-5.708 0-10.372 3.9-13.989 11.704l-64.24 129.906-143.324 20.838C5.33 165.067 0 169.444 0 176.487c0 3.999 2.38 8.567 7.139 13.706l103.924 101.068L86.51 434.01c-.381 2.666-.57 4.575-.57 5.712 0 3.997.998 7.374 2.996 10.136 1.997 2.766 4.993 4.142 8.992 4.142 3.428 0 7.233-1.137 11.42-3.423l128.188-67.386 128.197 67.386c4.004 2.286 7.81 3.423 11.416 3.423 3.819 0 6.715-1.376 8.713-4.142 1.992-2.758 2.991-6.139 2.991-10.136 0-2.471-.096-4.374-.287-5.712l-24.555-142.749 103.637-101.068c4.956-4.949 7.427-9.519 7.427-13.706z" fill="#ff6b2b"/></symbol><symbol id="thumbs" viewBox="0 0 24 24"><path d="M9.826 0H.503A.503.503 0 0 0 0 .503v9.324c0 .277.225.502.503.502h9.323a.503.503 0 0 0 .503-.502V.503A.503.503 0 0 0 9.826 0zm13.671 0h-9.324a.503.503 0 0 0-.502.503v9.324c0 .277.225.502.502.502h9.324A.503.503 0 0 0 24 9.827V.503A.503.503 0 0 0 23.497 0zM9.826 13.67H.503a.503.503 0 0 0-.503.503v9.324c0 .278.225.503.503.503h9.323a.503.503 0 0 0 .503-.503v-9.324a.503.503 0 0 0-.503-.502zm13.671 0h-9.324a.503.503 0 0 0-.502.503v9.324c0 .278.225.503.502.503h9.324a.503.503 0 0 0 .503-.503v-9.324a.503.503 0 0 0-.503-.502z"/></symbol></svg>